<svg xmlns="http://www.w3.org/2000/svg" width="416.542" height="158.646" viewBox="0 0 416.542 158.646"><g fill="#535353"><path d="M115.553 92.125c0-1.662.094-3.599.284-5.809.188-2.21.444-4.542.765-6.998.32-2.456.699-4.958 1.133-7.508a177.664 177.664 0 0 1 2.862-13.629c.49-1.927.982-3.514 1.474-4.76.302-.83.604-1.492.906-1.983.302-.49.652-.878 1.048-1.162.397-.283.887-.472 1.474-.566.585-.094 1.312-.142 2.182-.142.982 0 1.747.048 2.295.142.547.094.954.321 1.218.68.264.36.425.878.482 1.559.057.68.085 1.606.085 2.776v5.072c0 1.984.037 3.938.113 5.865h.624c.755-1.51 1.605-3.202 2.55-5.072a33.057 33.057 0 0 1 3.287-5.242c1.247-1.624 2.664-2.994 4.25-4.108 1.587-1.114 3.419-1.671 5.497-1.671.717 0 1.417.123 2.097.368.68.246 1.275.595 1.785 1.048.51.453.916 1.011 1.218 1.671.302.661.454 1.408.454 2.239 0 .643-.095 1.539-.283 2.691-.19 1.153-.397 2.361-.624 3.627a187.73 187.73 0 0 0-.624 3.683c-.189 1.19-.283 2.182-.283 2.975 0 1.36.132 2.493.396 3.4s.614 1.635 1.049 2.182c.434.548.925.935 1.473 1.162.547.227 1.124.34 1.729.34 1.7 0 3.457-.377 5.27-1.133a34.274 34.274 0 0 0 4.986-2.55 47.184 47.184 0 0 0 5.213-3.74l-.85 13.26c-.983.642-2.097 1.359-3.344 2.153a42.356 42.356 0 0 1-3.995 2.238 30.112 30.112 0 0 1-4.42 1.757c-1.53.472-3.088.708-4.675.708-2.833 0-5.12-.576-6.857-1.729-1.738-1.152-3.117-2.663-4.137-4.533s-1.776-3.967-2.267-6.29a87.16 87.16 0 0 1-1.19-7.055h-.907l-10.144 28.277c-.529 1.474-1.029 2.691-1.501 3.655-.473.963-.955 1.747-1.445 2.352-.491.604-1.02 1.029-1.587 1.275a4.66 4.66 0 0 1-1.87.368c-1.55 0-2.796-.331-3.74-.992-.945-.661-1.672-1.549-2.182-2.663-.51-1.114-.85-2.38-1.02-3.797a37.042 37.042 0 0 1-.254-4.391z"/><path d="M183.667 103.969c-3.551 0-6.659-.643-9.322-1.927-2.664-1.284-4.883-3.013-6.659-5.186-1.776-2.172-3.108-4.684-3.995-7.536-.888-2.853-1.332-5.847-1.332-8.981 0-2.116.207-4.354.624-6.715a39.04 39.04 0 0 1 1.898-6.942 36.282 36.282 0 0 1 3.202-6.488 25.718 25.718 0 0 1 4.505-5.44 20.855 20.855 0 0 1 5.78-3.74c2.133-.926 4.505-1.388 7.111-1.388 2.116 0 4.08.34 5.894 1.02 1.813.68 3.391 1.635 4.731 2.862 1.341 1.228 2.389 2.711 3.146 4.449.755 1.737 1.133 3.683 1.133 5.836 0 2.343-.576 4.685-1.729 7.027-1.153 2.343-2.749 4.553-4.789 6.63-2.04 2.078-4.468 3.929-7.282 5.554-2.814 1.624-5.865 2.89-9.151 3.797.566 1.02 1.124 1.869 1.671 2.55.547.68 1.105 1.209 1.672 1.587a5.579 5.579 0 0 0 1.785.793 8.527 8.527 0 0 0 2.012.227c2.267 0 4.655-.453 7.168-1.36a46.814 46.814 0 0 0 7.338-3.399 62.34 62.34 0 0 0 6.744-4.448c2.116-1.605 3.91-3.126 5.383-4.562l7.31 7.593c-3.324 3.438-6.856 6.479-10.596 9.123-1.625 1.134-3.372 2.248-5.242 3.344s-3.834 2.068-5.894 2.918a40.705 40.705 0 0 1-6.403 2.04 29.905 29.905 0 0 1-6.713.762zm-7.537-26.634c1.36 0 2.842-.349 4.449-1.048a19.99 19.99 0 0 0 4.477-2.692c1.379-1.095 2.541-2.285 3.485-3.57.944-1.284 1.417-2.53 1.417-3.74 0-1.7-.312-3.097-.935-4.193-.624-1.096-1.389-1.644-2.295-1.644-1.625 0-3.013.303-4.165.907a9.011 9.011 0 0 0-2.89 2.352 12.2 12.2 0 0 0-1.87 3.287 22.34 22.34 0 0 0-1.077 3.712 27.826 27.826 0 0 0-.481 3.626 46.06 46.06 0 0 0-.115 3.003z"/><path d="M228.263 103.969c-3.551 0-6.658-.643-9.322-1.927-2.663-1.284-4.883-3.013-6.658-5.186-1.775-2.172-3.107-4.684-3.994-7.536-.888-2.853-1.332-5.847-1.332-8.981 0-2.116.207-4.354.624-6.715a39.04 39.04 0 0 1 1.898-6.942 36.34 36.34 0 0 1 3.2-6.488 25.753 25.753 0 0 1 4.506-5.44 20.865 20.865 0 0 1 5.779-3.74c2.135-.926 4.506-1.388 7.112-1.388 2.115 0 4.08.34 5.894 1.02 1.812.68 3.391 1.635 4.731 2.862 1.341 1.228 2.39 2.711 3.145 4.449.756 1.737 1.134 3.683 1.134 5.836 0 2.343-.576 4.685-1.729 7.027-1.152 2.343-2.748 4.553-4.788 6.63-2.04 2.078-4.468 3.929-7.282 5.554-2.814 1.624-5.865 2.89-9.151 3.797.566 1.02 1.124 1.869 1.672 2.55.548.68 1.104 1.209 1.671 1.587a5.588 5.588 0 0 0 1.785.793 8.533 8.533 0 0 0 2.012.227c2.267 0 4.656-.453 7.169-1.36a46.814 46.814 0 0 0 7.338-3.399 62.13 62.13 0 0 0 6.743-4.448c2.116-1.605 3.91-3.126 5.384-4.562l7.311 7.593c-3.325 3.438-6.857 6.479-10.597 9.123-1.625 1.134-3.372 2.248-5.242 3.344s-3.835 2.068-5.894 2.918a40.671 40.671 0 0 1-6.403 2.04 29.95 29.95 0 0 1-6.716.762zm-7.537-26.634c1.36 0 2.843-.349 4.448-1.048a19.952 19.952 0 0 0 4.478-2.692c1.379-1.095 2.54-2.285 3.484-3.57.944-1.284 1.417-2.53 1.417-3.74 0-1.7-.312-3.097-.936-4.193-.623-1.096-1.388-1.644-2.295-1.644-1.624 0-3.013.303-4.165.907-1.152.604-2.115 1.388-2.89 2.352s-1.397 2.06-1.87 3.287a22.24 22.24 0 0 0-1.076 3.712 28.18 28.18 0 0 0-.482 3.626 48.11 48.11 0 0 0-.113 3.003z"/><path d="M253.707 92.125c0-2.493.151-5.374.453-8.642.303-3.268.681-6.592 1.134-9.974.453-3.38.963-6.639 1.53-9.775.566-3.136 1.114-5.817 1.643-8.047.416-1.737 1.219-3.192 2.408-4.363 1.19-1.17 2.806-1.756 4.846-1.756s3.456.623 4.25 1.87c.793 1.247 1.189 2.91 1.189 4.987 0 .567-.057 1.332-.17 2.295s-.255 2.021-.425 3.173a641.45 641.45 0 0 1-.538 3.57 366.035 366.035 0 0 1-.538 3.4c-.17 1.04-.312 1.946-.426 2.72-.113.774-.17 1.294-.17 1.558h1.134c.227-.416.586-1.085 1.076-2.012.491-.925 1.059-1.992 1.7-3.202a330.926 330.926 0 0 1 2.068-3.825c.737-1.34 1.427-2.625 2.068-3.853a133.866 133.866 0 0 1 1.757-3.258c.529-.944.926-1.644 1.19-2.097 1.209-2.04 2.587-3.437 4.137-4.193 1.549-.756 3.268-1.133 5.156-1.133s3.391.793 4.505 2.38c1.114 1.586 1.672 3.778 1.672 6.573 0 .417-.085 1.114-.255 2.097-.17.983-.388 2.153-.651 3.513-.265 1.36-.558 2.853-.879 4.477a125.672 125.672 0 0 0-.878 4.986 97.564 97.564 0 0 0-.652 5.043 45.39 45.39 0 0 0-.255 4.59c0 2.342.293 4.269.879 5.78.585 1.511 1.501 2.267 2.748 2.267.566 0 1.219-.17 1.955-.511.736-.34 1.53-.783 2.38-1.331.851-.548 1.719-1.181 2.606-1.898s1.767-1.454 2.636-2.21a127.331 127.331 0 0 0 6.29-6.007l.963 12.693-2.833 2.153a346.697 346.697 0 0 1-4.731 3.514 41.919 41.919 0 0 1-5.016 3.145 31.09 31.09 0 0 1-5.44 2.267 19.964 19.964 0 0 1-5.949.879c-2.078 0-3.825-1.502-5.242-4.505-1.417-3.004-2.125-7.396-2.125-13.176 0-2.267.151-4.713.453-7.338.303-2.626.681-5.449 1.134-8.472h-.907L266.74 99.945c-.755 1.549-1.605 2.606-2.55 3.173-.944.567-2.04.851-3.286.851-1.55 0-2.796-.331-3.74-.992s-1.672-1.549-2.182-2.663c-.511-1.114-.851-2.38-1.021-3.797a37.071 37.071 0 0 1-.254-4.392z"/><path d="M304.423 82.208a215.55 215.55 0 0 0 5.157-4.533 64.274 64.274 0 0 0 3.399-3.315c.945-1 1.805-2.012 2.579-3.032l2.748-3.626c1.058-1.397 2.342-3.107 3.854-5.128 1.511-2.021 3.476-4.542 5.894-7.565.491-.68 1.039-1.34 1.643-1.983a12.644 12.644 0 0 1 2.012-1.729c.737-.51 1.549-.925 2.438-1.247.888-.32 1.879-.481 2.975-.481 1.813 0 3.211.198 4.193.595s1.7.878 2.153 1.445c.453.567.718 1.162.793 1.785.076.624.114 1.162.114 1.615 0 .907-.359 1.908-1.077 3.003-.718 1.096-1.511 2.153-2.38 3.173s-1.69 1.955-2.465 2.805-1.219 1.483-1.332 1.898c0 1.171.085 2.238.255 3.202s.396 1.908.68 2.833c.284.926.576 1.908.879 2.947.302 1.04.595 2.238.878 3.598s.511 2.928.681 4.704.255 3.872.255 6.29a33.606 33.606 0 0 1 4.392-2.465c1.567-.737 3.201-1.502 4.901-2.295 1.7-.794 3.447-1.672 5.242-2.636 1.794-.963 3.598-2.125 5.411-3.485l.057 12.694c-2.342 1.813-5.053 3.513-8.132 5.1-3.078 1.587-6.309 2.984-9.689 4.193s-6.8 2.163-10.257 2.862c-3.457.698-6.734 1.048-9.832 1.048-2.229 0-4.307-.208-6.233-.623-1.927-.416-3.617-1.067-5.071-1.955-1.455-.888-2.636-2.05-3.542-3.485s-1.454-3.173-1.644-5.213a11.71 11.71 0 0 1-1.558.227 20.8 20.8 0 0 1-1.502.057c-.604 0-1.171-.02-1.7-.057-.529-.038-.982-.18-1.36-.425-.377-.246-.68-.643-.906-1.19s-.34-1.332-.34-2.352c0-.907.227-1.747.68-2.521s.982-1.464 1.587-2.068 1.209-1.134 1.813-1.587 1.056-.814 1.357-1.078zm7.254 7.254c.453 0 .954.283 1.502.85.547.567 1.18 1.19 1.897 1.87.718.681 1.55 1.304 2.494 1.87s2.021.85 3.229.85c1.474 0 2.691-.245 3.655-.736.963-.491 1.729-1.143 2.295-1.955s.964-1.757 1.19-2.833c.227-1.077.34-2.201.34-3.372 0-1.02-.066-2.059-.198-3.116a35.183 35.183 0 0 0-.511-3.032 40.146 40.146 0 0 0-.68-2.72 111.29 111.29 0 0 0-.651-2.182l-14.562 14.506z"/><path d="M384.268 60.448a8.84 8.84 0 0 1 1.614-3.428 11.803 11.803 0 0 1 5.809-4.052c1.096-.34 2.135-.51 3.117-.51 1.171 0 2.153.255 2.946.765s1.19 1.313 1.19 2.408c0 .34-.057.737-.17 1.19-.228.983-.511 2.324-.851 4.023-.34 1.7-.708 3.627-1.104 5.78a653.257 653.257 0 0 0-1.219 6.828 514.47 514.47 0 0 0-1.189 7.169 1178.327 1178.327 0 0 0-2.891 18.02c1.134-.642 2.361-1.436 3.684-2.38s2.796-2.21 4.42-3.797c1.624-1.586 3.438-3.579 5.44-5.979 2.002-2.398 4.25-5.393 6.743-8.981l2.72 12.58c-.68 1.171-1.559 2.371-2.635 3.599a54.285 54.285 0 0 1-3.57 3.684 74.08 74.08 0 0 1-4.08 3.569 130.373 130.373 0 0 1-14.535 10.285 160.81 160.81 0 0 1-2.55 11.815c-.982 3.834-2.144 7.423-3.485 10.767-1.341 3.344-2.871 6.413-4.59 9.209-1.719 2.795-3.664 5.194-5.837 7.196a24.604 24.604 0 0 1-7.281 4.675c-2.683 1.114-5.648 1.672-8.896 1.672-1.285 0-2.673-.132-4.165-.396s-2.871-.794-4.137-1.587-2.314-1.927-3.146-3.4c-.829-1.473-1.246-3.438-1.246-5.893 0-1.7.434-3.617 1.303-5.752.871-2.135 2.061-4.383 3.57-6.743 1.511-2.361 3.306-4.817 5.383-7.367a123.666 123.666 0 0 1 6.772-7.622 180.288 180.288 0 0 1 7.649-7.479 183.656 183.656 0 0 1 8.075-7.027l1.53-5.27c-2.04 1.813-4.165 3.277-6.375 4.392s-4.354 1.672-6.432 1.672c-1.813 0-3.58-.368-5.299-1.105-1.719-.736-3.239-1.794-4.562-3.173s-2.38-3.061-3.173-5.044c-.794-1.983-1.19-4.222-1.19-6.715 0-3.286.16-6.309.481-9.066.321-2.757.784-5.384 1.389-7.877s1.36-4.902 2.267-7.225 1.945-4.675 3.116-7.055c.869-1.7 2.116-2.994 3.74-3.881 1.625-.887 3.211-1.332 4.761-1.332 1.321 0 2.455.332 3.399.992.944.661 1.417 1.691 1.417 3.088 0 .417-.048.87-.142 1.36a8.836 8.836 0 0 1-.481 1.586c-.681 1.738-1.351 3.788-2.012 6.148a107.258 107.258 0 0 0-1.757 7.253 96.43 96.43 0 0 0-1.219 7.282c-.302 2.38-.453 4.477-.453 6.29 0 .944.066 1.86.198 2.748s.368 1.682.708 2.38c.341.699.794 1.266 1.36 1.7s1.284.652 2.153.652c1.397 0 2.663-.604 3.797-1.813 1.133-1.209 2.115-2.664 2.946-4.363a31.221 31.221 0 0 0 2.012-5.271c.511-1.813.841-3.324.992-4.533l3.971-16.661zm-26.52 85.228c1.587 0 3.088-.463 4.505-1.389s2.72-2.144 3.91-3.655c1.19-1.511 2.276-3.229 3.259-5.156a56.972 56.972 0 0 0 2.606-5.922 69.938 69.938 0 0 0 1.927-5.922 76.75 76.75 0 0 0 1.246-5.156c-1.473.982-2.975 2.153-4.505 3.513a65.045 65.045 0 0 0-4.477 4.393c-1.454 1.567-2.833 3.183-4.137 4.845s-2.446 3.258-3.429 4.788c-.981 1.53-1.756 2.956-2.323 4.278-.566 1.322-.85 2.418-.85 3.287.001 1.396.757 2.096 2.268 2.096z"/></g><path d="M55.171 52.679A209.824 209.824 0 0 1 58.884 36.3c1.072-3.963 2.273-8.477 3.583-11.477H14.278c-5.047 0-9.507 4.253-9.507 9.301v27.699h48.795c.497-3 1.024-6.024 1.605-9.144zm-6.011 63.684a113.146 113.146 0 0 1-.274-7.722c0-.209.046-1.48.15-3.816.097-2.189.278-5.352.553-9.007.151-2.018.341-2.995.558-6.995H4.771v31.796c0 5.047 4.46 9.204 9.507 9.204h37.093c-.482-2-.915-3.497-1.231-5.311a79.144 79.144 0 0 1-.98-8.149zm55.359-71.19a174.504 174.504 0 0 1-5.914 11.144 220.527 220.527 0 0 1-4.38 7.258c1.504-.54 2.792-1.106 3.845-1.694 1.729-.937 3.073-1.958 4.227-3.087l7.475-7.38v-17.29c0-.444.027-.877-.034-1.303-.18.493-.318.981-.51 1.48a143.634 143.634 0 0 1-4.709 10.872zm-9.202 45.495a78.877 78.877 0 0 1 2.131 6.712 41.089 41.089 0 0 1 1.443 10.752c0 .504-.029 1.18-.171 2.84a80.048 80.048 0 0 1-.534 4.477 84.757 84.757 0 0 1-1.063 5.829 63.504 63.504 0 0 1-1.854 6.739c-.202.599-.448 1.807-.673 1.807h6.176c5.047 0 8.998-4.157 8.998-9.204V85.76c-3 1.47-5.703 2.657-8.749 3.504-2.004.556-3.868 1.027-5.704 1.404z" fill="#FF313F"/><path fill="#535353" d="M101.996 68.918c-1.964 1.096-4.383 2.088-7.253 2.975-2.871.888-6.177 1.332-9.917 1.332-.378 0-.7-.047-.963-.142a8.73 8.73 0 0 1-.765-.312 7.086 7.086 0 0 0-.822-.312c-.303-.094-.7-.142-1.19-.142a4.12 4.12 0 0 0-1.19.17 6.73 6.73 0 0 0-.61.232v-.991h-.535a141.056 141.056 0 0 0 6.443-9.016 212.015 212.015 0 0 0 6.432-10.427 165.441 165.441 0 0 0 5.638-10.625c1.719-3.55 3.21-6.97 4.477-10.257 1.266-3.287 2.247-6.375 2.947-9.265.699-2.89 1.048-5.449 1.048-7.678 0-2.456-.388-4.524-1.162-6.205-.774-1.681-1.748-3.032-2.918-4.052a10.939 10.939 0 0 0-3.882-2.21c-1.417-.454-2.768-.68-4.052-.68-3.25 0-6.233.983-8.954 2.947-2.72 1.964-5.185 4.638-7.395 8.018-2.21 3.381-4.203 7.33-5.978 11.844-1.776 4.515-3.353 9.322-4.732 14.422a200.582 200.582 0 0 0-3.57 15.725 390.957 390.957 0 0 0-2.607 15.753c-.083.576-.157 1.136-.237 1.706H5.14V81.4h53.897a308.186 308.186 0 0 0-.335 3.186c-.453 4.59-.813 8.642-1.077 12.155s-.444 6.327-.538 8.443a207.123 207.123 0 0 0-.142 3.456c0 2.304.085 4.694.255 7.169a70.25 70.25 0 0 0 .878 7.281c.416 2.38.992 4.638 1.729 6.772.736 2.133 1.652 4.003 2.748 5.609 1.096 1.605 2.417 2.881 3.967 3.825 1.549.943 3.362 1.417 5.44 1.417 2.077 0 3.938-.435 5.582-1.304a15.62 15.62 0 0 0 4.363-3.428c1.266-1.417 2.371-3.042 3.315-4.874a41.049 41.049 0 0 0 2.408-5.695 54.054 54.054 0 0 0 1.615-5.836 76.494 76.494 0 0 0 1.444-9.294c.094-1.097.142-1.813.142-2.153 0-2.909-.388-5.788-1.162-8.642-.774-2.853-1.635-5.431-2.578-7.735a77.3 77.3 0 0 0-3.684-7.763 72.01 72.01 0 0 0 7.99-.794c2.304-.376 4.816-.942 7.537-1.7a36.873 36.873 0 0 0 7.82-3.173l1.247-13.77c-1.698 1.666-3.701 3.12-6.005 4.366zm-25.5-15.442c.263-2.437.717-5.261 1.36-8.472.642-3.21 1.586-6.885 2.833-11.022 1.247-4.137 2.965-8.925 5.156-14.365.717-1.851 1.53-3.239 2.437-4.165.907-.926 2.229-1.389 3.967-1.389.982 0 1.756.463 2.323 1.389.566.926.85 2.389.85 4.392 0 1.436-.595 3.533-1.785 6.29-1.19 2.758-2.729 5.941-4.619 9.548a533.357 533.357 0 0 1-6.347 11.73 738.295 738.295 0 0 0-6.97 12.835c.265-2.076.53-4.334.795-6.771zm2.295 62.391c-.133 2.133-.397 4.099-.793 5.894-.396 1.793-.983 3.277-1.757 4.448-.774 1.169-1.805 1.757-3.088 1.757-.416 0-.821-.255-1.218-.766-.396-.51-.756-1.614-1.077-3.314-.321-1.7-.586-4.193-.793-7.48-.208-3.286-.312-7.707-.312-13.26 0-.794.037-1.878.113-3.259.076-1.379.17-2.869.283-4.477.114-1.605.246-3.237.397-4.901.15-1.662.312-3.164.481-4.505.17-1.34.349-2.438.539-3.287.189-.85.359-1.275.51-1.275.454 0 .944.511 1.474 1.53.529 1.021 1.048 2.352 1.558 3.995.51 1.644 1 3.506 1.474 5.582.472 2.077.887 4.165 1.247 6.262.359 2.097.642 4.108.85 6.035.207 1.927.312 3.549.312 4.873a101.44 101.44 0 0 1-.2 6.148z"/></svg>