<?xml version="1.0" encoding="utf-8"?>
<!-- Generator: Adobe Illustrator 16.0.0, SVG Export Plug-In . SVG Version: 6.00 Build 0)  -->
<!DOCTYPE svg PUBLIC "-//W3C//DTD SVG 1.1//EN" "http://www.w3.org/Graphics/SVG/1.1/DTD/svg11.dtd">
<svg version="1.1" id="Layer_1" xmlns:sketch="http://www.bohemiancoding.com/sketch/ns"
	 xmlns="http://www.w3.org/2000/svg" xmlns:xlink="http://www.w3.org/1999/xlink" x="0px" y="0px" width="1000px" height="1000px"
	 viewBox="0 0 1000 1000" enable-background="new 0 0 1000 1000" xml:space="preserve">
<title>icon-preferences</title>
<desc>Created with Sketch.</desc>
<g sketch:type="MSPage">
	<g transform="translate(-332.000000, -712.000000)" sketch:type="MSArtboardGroup">
		<g transform="translate(332.000000, 712.000000)" sketch:type="MSLayerGroup">
			<path sketch:type="MSShapeGroup" d="M222.342,130.264c0-11.329,2.165-22.136,5.95-32.143H123.485
				c-17.757,0-32.143,14.393-32.143,32.143c0,17.757,14.386,32.143,32.143,32.143h104.807
				C224.507,152.4,222.342,141.6,222.342,130.264"/>
			<path sketch:type="MSShapeGroup" d="M870.985,98.122H398.471c3.786,10.007,5.95,20.814,5.95,32.143
				c0,11.336-2.164,22.136-5.95,32.143h472.515c17.75,0,32.143-14.386,32.143-32.143C903.128,112.514,888.735,98.122,870.985,98.122
				"/>
			<path sketch:type="MSShapeGroup" d="M313.385,253.443c-67.921,0-123.178-55.257-123.178-123.179S245.464,7.079,313.385,7.079
				c67.922,0,123.179,55.264,123.179,123.186S381.307,253.443,313.385,253.443L313.385,253.443z M313.385,71.364
				c-32.471,0-58.893,26.421-58.893,58.9c0,32.472,26.422,58.893,58.893,58.893c32.472,0,58.894-26.421,58.894-58.893
				C372.278,97.786,345.856,71.364,313.385,71.364L313.385,71.364z"/>
			<path sketch:type="MSShapeGroup" d="M567.007,400.536c0-11.336,2.164-22.144,5.95-32.15H123.485
				c-17.757,0-32.143,14.393-32.143,32.143c0,17.758,14.386,32.144,32.143,32.144h449.464
				C569.171,422.664,567.007,411.864,567.007,400.536"/>
			<path sketch:type="MSShapeGroup" d="M870.985,368.386H743.128c3.786,10.007,5.95,20.814,5.95,32.15
				c0,11.328-2.164,22.128-5.943,32.136h127.851c17.75,0,32.143-14.386,32.143-32.144
				C903.128,382.778,888.735,368.386,870.985,368.386"/>
			<path sketch:type="MSShapeGroup" d="M658.042,523.714c-67.921,0-123.178-55.257-123.178-123.186
				c0-67.921,55.257-123.178,123.178-123.178c67.922,0,123.187,55.257,123.187,123.178
				C781.229,468.457,725.964,523.714,658.042,523.714L658.042,523.714z M658.042,341.636c-32.471,0-58.893,26.421-58.893,58.893
				c0,32.479,26.422,58.9,58.893,58.9c32.472,0,58.9-26.422,58.9-58.9C716.942,368.057,690.514,341.636,658.042,341.636
				L658.042,341.636z"/>
			<path sketch:type="MSShapeGroup" d="M222.342,670.8c0-11.328,2.165-22.136,5.95-32.143H123.485
				c-17.757,0-32.143,14.393-32.143,32.143c0,17.757,14.386,32.144,32.143,32.144h104.807
				C224.507,692.936,222.342,682.136,222.342,670.8"/>
			<path sketch:type="MSShapeGroup" d="M870.985,638.657H398.471c3.786,10.007,5.95,20.814,5.95,32.143
				c0,11.336-2.164,22.136-5.95,32.144h472.515c17.75,0,32.143-14.387,32.143-32.144
				C903.128,653.05,888.735,638.657,870.985,638.657"/>
			<path sketch:type="MSShapeGroup" d="M313.385,793.979c-67.921,0-123.178-55.257-123.178-123.179
				c0-67.921,55.257-123.179,123.178-123.179c67.922,0,123.179,55.258,123.179,123.179
				C436.563,738.722,381.307,793.979,313.385,793.979L313.385,793.979z M313.385,611.907c-32.471,0-58.893,26.421-58.893,58.893
				s26.422,58.894,58.893,58.894c32.472,0,58.894-26.422,58.894-58.894S345.856,611.907,313.385,611.907L313.385,611.907z"/>
		</g>
	</g>
</g>
</svg>
